#!OML:ASF F:\VICON\USERDATA\INSTALL\rory3\rory3.ASF
:FULLY-SPECIFIED
:DEGREES
2821
root -14.8414 18.0338 10.8337 -1081.17 -4.28414 -2.12594
lowerback 11.3377 0.494842 1.30428
upperback 0.75346 0.850475 0.491965
thorax -5.56079 0.391138 -0.355672
lowerneck -21.6185 -3.42615 -9.62373
upperneck 26.178 -2.93401 4.91323
head 12.5161 -1.61891 3.00132
rclavicle -2.47238e-015 3.27995e-015
rhumerus -35.2376 -4.33103 -79.3958
rradius 29.9129
rwrist 4.40379
rhand -17.7651 7.43091
rfingers 7.12502
rthumb 8.49705 -22.3781
lclavicle -2.47238e-015 3.27995e-015
lhumerus -32.9581 2.97748 82.7167
lradius 31.3942
lwrist -9.97311
lhand -18.9205 25.2374
lfingers 7.12502
lthumb 7.38184 55.0886
rfemur -3.63115 -2.67293 20.297
rtibia 22.0233
rfoot -10.7278 -10.5719
rtoes -10.6881
lfemur -16.9882 1.51735 -15.732
ltibia 44.2544
lfoot -6.96247 2.92104
ltoes 1.47002
2822
root -14.8804 18.0306 10.8908 -1081.07 -3.14778 -2.13302
lowerback 11.3749 0.497162 1.31915
upperback 0.703325 0.856954 0.487072
thorax -5.63405 0.393386 -0.370936
lowerneck -21.4661 -3.44539 -9.61168
upperneck 26.1523 -2.99703 4.97145
head 12.4813 -1.63788 3.01111
rclavicle -9.12546e-015 -6.95746e-016
rhumerus -35.3313 -4.43903 -79.1531
rradius 30.2284
rwrist 4.32059
rhand -17.7426 7.46196
rfingers 7.12502
rthumb 8.51871 -22.3462
lclavicle -9.12546e-015 -6.95746e-016
lhumerus -33.0007 2.8037 82.7553
lradius 31.2609
lwrist -9.92898
lhand -19.1975 22.5302
lfingers 7.12502
lthumb 7.11455 52.3906
rfemur -3.4487 -2.91754 20.4835
rtibia 22.1591
rfoot -10.9386 -11.4978
rtoes -10.6846
lfemur -17.3212 1.91628 -15.8353
ltibia 42.9539
lfoot -7.10347 3.84982
ltoes 0.650998
2823
root -14.9161 18.024 10.9522 -1080.96 -1.97776 -2.07932
lowerback 11.3349 0.491352 1.27513
upperback 0.654114 0.843719 0.482145
thorax -5.66424 0.387765 -0.349028
lowerneck -21.5353 -3.48687 -9.79767
upperneck 26.3681 -3.10207 5.35262
head 12.6004 -1.65411 3.17789
rclavicle 1.07654e-014 -1.60022e-014
rhumerus -35.5839 -4.56135 -78.8681
rradius 30.7422
rwrist 4.2952
rhand -17.6879 7.80425
rfingers 7.12502
rthumb 8.57153 -22.0018
lclavicle 1.07654e-014 -1.60022e-014
lhumerus -33.0833 2.67937 82.77
lradius 31.105
lwrist -10.0898
lhand -19.1116 20.8359
lfingers 7.12502
lthumb 7.19745 50.6935
rfemur -3.24929 -3.4044 20.5589
rtibia 22.2866
rfoot -11.2892 -12.1714
rtoes -10.2728
lfemur -17.616 2.28069 -16.0358
ltibia 41.6124
lfoot -7.35591 4.72932
ltoes 0.394539
2824
root -14.9494 18.0177 11.0153 -1080.84 -0.854125 -2.16899
lowerback 11.1578 0.494264 1.38065
upperback 0.669532 0.859248 0.503315
thorax -5.54742 0.394116 -0.386756
lowerneck -21.9084 -3.49187 -9.7507
upperneck 26.864 -3.15554 5.54146
head 12.8831 -1.65028 3.24688
rclavicle -1.13432e-014 7.55382e-015
rhumerus -35.5283 -4.2847 -78.752
rradius 30.8126
rwrist 3.92807
rhand -17.9691 8.11169
rfingers 7.12502
rthumb 8.30017 -21.7053
lclavicle -1.13432e-014 7.55382e-015
lhumerus -33.156 2.59687 82.7799
lradius 31.0641
lwrist -10.2592
lhand -18.6709 21.5728
lfingers 7.12502
lthumb 7.62279 51.4154
rfemur -3.07845 -3.96124 20.7833
rtibia 22.4589
rfoot -11.607 -12.7176
rtoes -10.1938
lfemur -17.868 2.63672 -16.0965
ltibia 40.2494
lfoot -7.59111 5.51663
ltoes 1.09747
2825
root -14.9792 18.0105 11.077 -1080.73 0.271244 -2.27756
lowerback 11.0614 0.512075 1.5071
upperback 0.630526 0.899783 0.536651
thorax -5.53254 0.411464 -0.428592
lowerneck -21.9839 -3.48012 -9.45968
upperneck 27.0543 -3.20439 5.42552
head 12.9719 -1.65798 3.14822
rclavicle -2.25807e-014 -1.41137e-014
rhumerus -35.4937 -3.53988 -78.7483
rradius 30.6616
rwrist 3.26519
rhand -18.1473 8.26184
rfingers 7.12502
rthumb 8.12818 -21.5618
lclavicle -2.25807e-014 -1.41137e-014
lhumerus -33.4013 2.40103 82.9077
lradius 31.1915
lwrist -9.64501
lhand -18.2306 22.6918
lfingers 7.12502
lthumb 8.0478 52.5186
rfemur -2.93529 -4.4552 21.0172
rtibia 22.6168
rfoot -11.96 -13.299
rtoes -9.557
lfemur -18.122 3.10598 -16.171
ltibia 38.869
lfoot -7.68154 6.13646
ltoes 1.34853
2826
root -15.0065 18.0028 11.1391 -1080.61 1.48435 -2.23771
lowerback 11.0645 0.50914 1.48016
upperback 0.529117 0.895134 0.547981
thorax -5.64172 0.408898 -0.401494
lowerneck -21.8271 -3.49011 -9.26135
upperneck 26.9852 -3.27409 5.33182
head 12.9118 -1.68006 3.06418
rclavicle -2.17421e-015 -4.96962e-015
rhumerus -35.781 -2.93873 -78.661
rradius 30.8554
rwrist 3.055
rhand -18.2118 8.25021
rfingers 7.12502
rthumb 8.06593 -21.5759
lclavicle -2.17421e-015 -4.96962e-015
lhumerus -33.6579 2.1385 83.0862
lradius 31.168
lwrist -8.60141
lhand -17.63 23.873
lfingers 7.12502
lthumb 8.62736 53.6767
rfemur -2.72614 -4.97283 21.0681
rtibia 22.6584
rfoot -12.1773 -13.8689
rtoes -9.23658
lfemur -18.4051 3.64306 -16.4672
ltibia 37.5112
lfoot -7.72709 6.66444
ltoes 1.1355
2827
root -15.0341 17.9955 11.1978 -1080.47 2.6603 -2.29639
lowerback 11.0303 0.506133 1.54443
upperback 0.431127 0.901314 0.564677
thorax -5.72495 0.409556 -0.421383
lowerneck -21.7522 -3.48297 -9.06285
upperneck 27.1383 -3.25737 5.05475
head 12.9485 -1.69152 2.92827
rclavicle 4.73977e-015 9.83984e-015
rhumerus -36.1081 -2.63465 -78.547
rradius 31.168
rwrist 3.24777
rhand -18.6668 8.43245
rfingers 7.12502
rthumb 7.62674 -21.41
lclavicle 4.73977e-015 9.83984e-015
lhumerus -33.6393 1.86771 83.1583
lradius 30.9325
lwrist -8.14611
lhand -17.0714 24.3692
lfingers 7.12502
lthumb 9.16641 54.15
rfemur -2.55699 -5.31253 21.2703
rtibia 22.6397
rfoot -12.2259 -14.519
rtoes -9.6567
lfemur -18.7677 4.17633 -16.6615
ltibia 36.1515
lfoot -7.72941 7.13657
ltoes 1.26994
2828
root -15.0608 17.9877 11.2579 -1080.33 3.76147 -2.6261
lowerback 10.9068 0.51303 1.83476
upperback 0.343558 0.952544 0.677824
thorax -5.74446 0.428043 -0.473519
lowerneck -21.5988 -3.49609 -9.14064
upperneck 27.3373 -3.24301 4.98881
head 12.9985 -1.70586 2.92309
rclavicle -1.1368e-014 -1.0138e-014
rhumerus -36.2169 -2.40988 -78.3617
rradius 31.132
rwrist 3.4146
rhand -19.0492 8.39604
rfingers 7.12502
rthumb 7.25769 -21.4595
lclavicle -1.1368e-014 -1.0138e-014
lhumerus -33.6407 1.69264 83.212
lradius 30.8623
lwrist -7.97445
lhand -17.1813 24.1258
lfingers 7.12502
lthumb 9.0604 53.9113
rfemur -2.40803 -5.51316 21.7997
rtibia 22.5977
rfoot -12.3276 -15.2434
rtoes -9.84016
lfemur -19.1247 4.7851 -16.5596
ltibia 34.7764
lfoot -7.70177 7.481
ltoes 2.1768
2829
root -15.0845 17.9819 11.3211 -1080.2 4.8871 -2.82738
lowerback 10.7147 0.513124 1.98248
upperback 0.32895 0.973129 0.788853
thorax -5.65123 0.436705 -0.441449
lowerneck -21.4967 -3.46753 -9.36879
upperneck 27.4134 -3.2034 5.2316
head 13.0145 -1.6804 3.0671
rclavicle 1.66078e-014 1.02374e-014
rhumerus -36.061 -2.37492 -78.0391
rradius 30.788
rwrist 3.73185
rhand -18.9362 8.06812
rfingers 7.12502
rthumb 7.36672 -21.7836
lclavicle 1.66078e-014 1.02374e-014
lhumerus -33.7089 1.70079 83.2714
lradius 31.0572
lwrist -7.79008
lhand -17.5128 23.5465
lfingers 7.12502
lthumb 8.74049 53.3455
rfemur -2.19477 -5.8981 22.1542
rtibia 22.5225
rfoot -12.5754 -15.8436
rtoes -9.63523
lfemur -19.4192 5.42171 -16.6449
ltibia 33.3794
lfoot -7.52784 7.71638
ltoes 2.64749
2830
root -15.1007 17.9783 11.3891 -1080.09 5.99315 -2.72643
lowerback 10.4722 0.531471 1.87394
upperback 0.411679 0.977921 0.811191
thorax -5.4301 0.444906 -0.354377
lowerneck -21.5922 -3.34976 -9.39322
upperneck 27.4069 -3.06178 5.39429
head 13.0209 -1.59577 3.16085
rclavicle -5.18083e-015 8.22472e-015
rhumerus -35.8482 -2.30332 -77.8034
rradius 30.6331
rwrist 3.83385
rhand -18.9488 7.8141
rfingers 7.12502
rthumb 7.35453 -22.0381
lclavicle -5.18083e-015 8.22472e-015
lhumerus -33.6046 2.04373 83.2273
lradius 31.1246
lwrist -8.00878
lhand -17.5959 22.9414
lfingers 7.12502
lthumb 8.6603 52.7438
rfemur -1.91197 -6.52047 22.1009
rtibia 22.42
rfoot -12.7243 -16.2289
rtoes -9.71121
lfemur -19.6224 6.09574 -17.1434
ltibia 31.9645
lfoot -7.33022 7.85624
ltoes 1.54397
2831
root -15.1159 17.9753 11.4514 -1079.96 7.03199 -2.69293
lowerback 10.354 0.591759 1.83913
upperback 0.44489 1.05038 0.808681
thorax -5.32804 0.482672 -0.34646
lowerneck -21.6182 -3.3585 -9.34242
upperneck 27.2945 -3.11288 5.48494
head 12.9849 -1.59689 3.17657
rclavicle 2.85753e-015 7.4917e-015
rhumerus -35.772 -2.3335 -77.6199
rradius 30.7102
rwrist 3.73168
rhand -19.2314 7.72017
rfingers 7.12502
rthumb 7.08178 -22.1414
lclavicle 2.85753e-015 7.4917e-015
lhumerus -33.4215 2.61831 83.0282
lradius 30.9536
lwrist -8.66436
lhand -17.532 22.4322
lfingers 7.12502
lthumb 8.72202 52.232
rfemur -1.68339 -6.89672 22.1693
rtibia 22.3124
rfoot -12.7713 -16.7951
rtoes -9.8041
lfemur -19.8581 6.714 -17.5681
ltibia 30.5582
lfoot -7.17986 7.84768
ltoes 0.933468
